<mxfile host="Electron" agent="Mozilla/5.0 (Windows NT 10.0; Win64; x64) AppleWebKit/537.36 (KHTML, like Gecko) draw.io/24.7.5 Chrome/126.0.6478.183 Electron/31.3.0 Safari/537.36" version="24.7.5">
  <diagram id="C5RBs43oDa-KdzZeNtuy" name="Page-1">
    <mxGraphModel dx="1008" dy="852" grid="1" gridSize="10" guides="1" tooltips="1" connect="1" arrows="1" fold="1" page="1" pageScale="1" pageWidth="827" pageHeight="1169" math="0" shadow="0">
      <root>
        <mxCell id="WIyWlLk6GJQsqaUBKTNV-0" />
        <mxCell id="WIyWlLk6GJQsqaUBKTNV-1" parent="WIyWlLk6GJQsqaUBKTNV-0" />
        <mxCell id="HQ5E3-xCeJGkDemCtbQV-1" value="&lt;b&gt;Ticket&lt;/b&gt;" style="swimlane;fontStyle=0;childLayout=stackLayout;horizontal=1;startSize=26;fillColor=none;horizontalStack=0;resizeParent=1;resizeParentMax=0;resizeLast=0;collapsible=1;marginBottom=0;whiteSpace=wrap;html=1;" parent="WIyWlLk6GJQsqaUBKTNV-1" vertex="1">
          <mxGeometry x="199" y="390" width="140" height="182" as="geometry" />
        </mxCell>
        <mxCell id="HQ5E3-xCeJGkDemCtbQV-2" value="+ Id: Int" style="text;strokeColor=none;fillColor=none;align=left;verticalAlign=top;spacingLeft=4;spacingRight=4;overflow=hidden;rotatable=0;points=[[0,0.5],[1,0.5]];portConstraint=eastwest;whiteSpace=wrap;html=1;" parent="HQ5E3-xCeJGkDemCtbQV-1" vertex="1">
          <mxGeometry y="26" width="140" height="26" as="geometry" />
        </mxCell>
        <mxCell id="gkyO0bOVEcpPEuzfR0ZF-26" value="+ TicketName: string" style="text;strokeColor=none;fillColor=none;align=left;verticalAlign=top;spacingLeft=4;spacingRight=4;overflow=hidden;rotatable=0;points=[[0,0.5],[1,0.5]];portConstraint=eastwest;whiteSpace=wrap;html=1;" parent="HQ5E3-xCeJGkDemCtbQV-1" vertex="1">
          <mxGeometry y="52" width="140" height="26" as="geometry" />
        </mxCell>
        <mxCell id="OqU2lXIKm_mav_ARl6A4-28" value="+ Price: Int" style="text;strokeColor=none;fillColor=none;align=left;verticalAlign=top;spacingLeft=4;spacingRight=4;overflow=hidden;rotatable=0;points=[[0,0.5],[1,0.5]];portConstraint=eastwest;whiteSpace=wrap;html=1;" parent="HQ5E3-xCeJGkDemCtbQV-1" vertex="1">
          <mxGeometry y="78" width="140" height="26" as="geometry" />
        </mxCell>
        <mxCell id="OqU2lXIKm_mav_ARl6A4-30" value="+ Amount: Int" style="text;strokeColor=none;fillColor=none;align=left;verticalAlign=top;spacingLeft=4;spacingRight=4;overflow=hidden;rotatable=0;points=[[0,0.5],[1,0.5]];portConstraint=eastwest;whiteSpace=wrap;html=1;" parent="HQ5E3-xCeJGkDemCtbQV-1" vertex="1">
          <mxGeometry y="104" width="140" height="26" as="geometry" />
        </mxCell>
        <mxCell id="OqU2lXIKm_mav_ARl6A4-29" value="+ GuestName: string" style="text;strokeColor=none;fillColor=none;align=left;verticalAlign=top;spacingLeft=4;spacingRight=4;overflow=hidden;rotatable=0;points=[[0,0.5],[1,0.5]];portConstraint=eastwest;whiteSpace=wrap;html=1;" parent="HQ5E3-xCeJGkDemCtbQV-1" vertex="1">
          <mxGeometry y="130" width="140" height="26" as="geometry" />
        </mxCell>
        <mxCell id="HQ5E3-xCeJGkDemCtbQV-3" value="+ SaleDate: DateTime" style="text;strokeColor=none;fillColor=none;align=left;verticalAlign=top;spacingLeft=4;spacingRight=4;overflow=hidden;rotatable=0;points=[[0,0.5],[1,0.5]];portConstraint=eastwest;whiteSpace=wrap;html=1;" parent="HQ5E3-xCeJGkDemCtbQV-1" vertex="1">
          <mxGeometry y="156" width="140" height="26" as="geometry" />
        </mxCell>
        <mxCell id="HQ5E3-xCeJGkDemCtbQV-5" value="&lt;b&gt;EventPlan&lt;/b&gt;" style="swimlane;fontStyle=0;childLayout=stackLayout;horizontal=1;startSize=26;fillColor=none;horizontalStack=0;resizeParent=1;resizeParentMax=0;resizeLast=0;collapsible=1;marginBottom=0;whiteSpace=wrap;html=1;" parent="WIyWlLk6GJQsqaUBKTNV-1" vertex="1">
          <mxGeometry x="199" y="40" width="140" height="78" as="geometry" />
        </mxCell>
        <mxCell id="HQ5E3-xCeJGkDemCtbQV-6" value="+ Id: Int" style="text;strokeColor=none;fillColor=none;align=left;verticalAlign=top;spacingLeft=4;spacingRight=4;overflow=hidden;rotatable=0;points=[[0,0.5],[1,0.5]];portConstraint=eastwest;whiteSpace=wrap;html=1;" parent="HQ5E3-xCeJGkDemCtbQV-5" vertex="1">
          <mxGeometry y="26" width="140" height="26" as="geometry" />
        </mxCell>
        <mxCell id="OqU2lXIKm_mav_ARl6A4-24" value="+ Season: string" style="text;strokeColor=none;fillColor=none;align=left;verticalAlign=top;spacingLeft=4;spacingRight=4;overflow=hidden;rotatable=0;points=[[0,0.5],[1,0.5]];portConstraint=eastwest;whiteSpace=wrap;html=1;" parent="HQ5E3-xCeJGkDemCtbQV-5" vertex="1">
          <mxGeometry y="52" width="140" height="26" as="geometry" />
        </mxCell>
        <mxCell id="HQ5E3-xCeJGkDemCtbQV-9" value="&lt;b&gt;SeatingPlan&lt;/b&gt;" style="swimlane;fontStyle=0;childLayout=stackLayout;horizontal=1;startSize=26;fillColor=none;horizontalStack=0;resizeParent=1;resizeParentMax=0;resizeLast=0;collapsible=1;marginBottom=0;whiteSpace=wrap;html=1;" parent="WIyWlLk6GJQsqaUBKTNV-1" vertex="1">
          <mxGeometry x="469" y="370" width="160" height="120" as="geometry" />
        </mxCell>
        <mxCell id="HQ5E3-xCeJGkDemCtbQV-10" value="+ Id: Int" style="text;strokeColor=none;fillColor=none;align=left;verticalAlign=top;spacingLeft=4;spacingRight=4;overflow=hidden;rotatable=0;points=[[0,0.5],[1,0.5]];portConstraint=eastwest;whiteSpace=wrap;html=1;" parent="HQ5E3-xCeJGkDemCtbQV-9" vertex="1">
          <mxGeometry y="26" width="160" height="26" as="geometry" />
        </mxCell>
        <mxCell id="OqU2lXIKm_mav_ARl6A4-17" value="" style="line;strokeWidth=1;fillColor=none;align=left;verticalAlign=middle;spacingTop=-1;spacingLeft=3;spacingRight=3;rotatable=0;labelPosition=right;points=[];portConstraint=eastwest;strokeColor=inherit;" parent="HQ5E3-xCeJGkDemCtbQV-9" vertex="1">
          <mxGeometry y="52" width="160" height="8" as="geometry" />
        </mxCell>
        <mxCell id="OqU2lXIKm_mav_ARl6A4-19" value="+ BuyTicket(string: UserName, Int: Amount, Play play): Ticket" style="text;strokeColor=none;fillColor=none;align=left;verticalAlign=top;spacingLeft=4;spacingRight=4;overflow=hidden;rotatable=0;points=[[0,0.5],[1,0.5]];portConstraint=eastwest;whiteSpace=wrap;html=1;" parent="HQ5E3-xCeJGkDemCtbQV-9" vertex="1">
          <mxGeometry y="60" width="160" height="60" as="geometry" />
        </mxCell>
        <mxCell id="HQ5E3-xCeJGkDemCtbQV-18" value="&lt;b&gt;PlayHouse&lt;/b&gt;" style="swimlane;fontStyle=0;childLayout=stackLayout;horizontal=1;startSize=26;fillColor=none;horizontalStack=0;resizeParent=1;resizeParentMax=0;resizeLast=0;collapsible=1;marginBottom=0;whiteSpace=wrap;html=1;" parent="WIyWlLk6GJQsqaUBKTNV-1" vertex="1">
          <mxGeometry x="439" y="40" width="190" height="78" as="geometry" />
        </mxCell>
        <mxCell id="HQ5E3-xCeJGkDemCtbQV-21" value="+ PlayHouseName: string" style="text;strokeColor=none;fillColor=none;align=left;verticalAlign=top;spacingLeft=4;spacingRight=4;overflow=hidden;rotatable=0;points=[[0,0.5],[1,0.5]];portConstraint=eastwest;whiteSpace=wrap;html=1;" parent="HQ5E3-xCeJGkDemCtbQV-18" vertex="1">
          <mxGeometry y="26" width="190" height="26" as="geometry" />
        </mxCell>
        <mxCell id="HQ5E3-xCeJGkDemCtbQV-19" value="+ Location: string" style="text;strokeColor=none;fillColor=none;align=left;verticalAlign=top;spacingLeft=4;spacingRight=4;overflow=hidden;rotatable=0;points=[[0,0.5],[1,0.5]];portConstraint=eastwest;whiteSpace=wrap;html=1;" parent="HQ5E3-xCeJGkDemCtbQV-18" vertex="1">
          <mxGeometry y="52" width="190" height="26" as="geometry" />
        </mxCell>
        <mxCell id="HQ5E3-xCeJGkDemCtbQV-22" value="&lt;b&gt;Play&lt;/b&gt;" style="swimlane;fontStyle=0;childLayout=stackLayout;horizontal=1;startSize=26;fillColor=none;horizontalStack=0;resizeParent=1;resizeParentMax=0;resizeLast=0;collapsible=1;marginBottom=0;whiteSpace=wrap;html=1;" parent="WIyWlLk6GJQsqaUBKTNV-1" vertex="1">
          <mxGeometry x="199" y="206" width="140" height="130" as="geometry" />
        </mxCell>
        <mxCell id="OqU2lXIKm_mav_ARl6A4-23" value="+ Id: Int" style="text;strokeColor=none;fillColor=none;align=left;verticalAlign=top;spacingLeft=4;spacingRight=4;overflow=hidden;rotatable=0;points=[[0,0.5],[1,0.5]];portConstraint=eastwest;whiteSpace=wrap;html=1;" parent="HQ5E3-xCeJGkDemCtbQV-22" vertex="1">
          <mxGeometry y="26" width="140" height="26" as="geometry" />
        </mxCell>
        <mxCell id="OqU2lXIKm_mav_ARl6A4-25" value="+ Title: string" style="text;strokeColor=none;fillColor=none;align=left;verticalAlign=top;spacingLeft=4;spacingRight=4;overflow=hidden;rotatable=0;points=[[0,0.5],[1,0.5]];portConstraint=eastwest;whiteSpace=wrap;html=1;" parent="HQ5E3-xCeJGkDemCtbQV-22" vertex="1">
          <mxGeometry y="52" width="140" height="26" as="geometry" />
        </mxCell>
        <mxCell id="OqU2lXIKm_mav_ARl6A4-26" value="+ Author: string" style="text;strokeColor=none;fillColor=none;align=left;verticalAlign=top;spacingLeft=4;spacingRight=4;overflow=hidden;rotatable=0;points=[[0,0.5],[1,0.5]];portConstraint=eastwest;whiteSpace=wrap;html=1;" parent="HQ5E3-xCeJGkDemCtbQV-22" vertex="1">
          <mxGeometry y="78" width="140" height="26" as="geometry" />
        </mxCell>
        <mxCell id="OqU2lXIKm_mav_ARl6A4-27" value="+ Duration: Int" style="text;strokeColor=none;fillColor=none;align=left;verticalAlign=top;spacingLeft=4;spacingRight=4;overflow=hidden;rotatable=0;points=[[0,0.5],[1,0.5]];portConstraint=eastwest;whiteSpace=wrap;html=1;" parent="HQ5E3-xCeJGkDemCtbQV-22" vertex="1">
          <mxGeometry y="104" width="140" height="26" as="geometry" />
        </mxCell>
        <mxCell id="HQ5E3-xCeJGkDemCtbQV-26" value="&lt;b&gt;Hall&lt;/b&gt;" style="swimlane;fontStyle=0;childLayout=stackLayout;horizontal=1;startSize=26;fillColor=none;horizontalStack=0;resizeParent=1;resizeParentMax=0;resizeLast=0;collapsible=1;marginBottom=0;whiteSpace=wrap;html=1;" parent="WIyWlLk6GJQsqaUBKTNV-1" vertex="1">
          <mxGeometry x="489" y="206" width="140" height="78" as="geometry" />
        </mxCell>
        <mxCell id="OqU2lXIKm_mav_ARl6A4-22" value="+ HallName: string" style="text;strokeColor=none;fillColor=none;align=left;verticalAlign=top;spacingLeft=4;spacingRight=4;overflow=hidden;rotatable=0;points=[[0,0.5],[1,0.5]];portConstraint=eastwest;whiteSpace=wrap;html=1;" parent="HQ5E3-xCeJGkDemCtbQV-26" vertex="1">
          <mxGeometry y="26" width="140" height="26" as="geometry" />
        </mxCell>
        <mxCell id="OqU2lXIKm_mav_ARl6A4-31" value="+ Floor: Int&amp;nbsp;&amp;nbsp;" style="text;strokeColor=none;fillColor=none;align=left;verticalAlign=top;spacingLeft=4;spacingRight=4;overflow=hidden;rotatable=0;points=[[0,0.5],[1,0.5]];portConstraint=eastwest;whiteSpace=wrap;html=1;" parent="HQ5E3-xCeJGkDemCtbQV-26" vertex="1">
          <mxGeometry y="52" width="140" height="26" as="geometry" />
        </mxCell>
        <mxCell id="OqU2lXIKm_mav_ARl6A4-1" value="" style="endArrow=diamondThin;endFill=0;endSize=24;html=1;rounded=0;" parent="WIyWlLk6GJQsqaUBKTNV-1" source="HQ5E3-xCeJGkDemCtbQV-22" target="HQ5E3-xCeJGkDemCtbQV-5" edge="1">
          <mxGeometry width="160" relative="1" as="geometry">
            <mxPoint x="389" y="270" as="sourcePoint" />
            <mxPoint x="549" y="270" as="targetPoint" />
          </mxGeometry>
        </mxCell>
        <mxCell id="OqU2lXIKm_mav_ARl6A4-2" value="0..*" style="edgeLabel;html=1;align=center;verticalAlign=middle;resizable=0;points=[];" parent="OqU2lXIKm_mav_ARl6A4-1" vertex="1" connectable="0">
          <mxGeometry x="-0.6917" relative="1" as="geometry">
            <mxPoint x="10" y="-2" as="offset" />
          </mxGeometry>
        </mxCell>
        <mxCell id="gkyO0bOVEcpPEuzfR0ZF-25" value="Verwaltet" style="edgeLabel;html=1;align=center;verticalAlign=middle;resizable=0;points=[];" parent="OqU2lXIKm_mav_ARl6A4-1" vertex="1" connectable="0">
          <mxGeometry x="-0.053" y="2" relative="1" as="geometry">
            <mxPoint as="offset" />
          </mxGeometry>
        </mxCell>
        <mxCell id="OqU2lXIKm_mav_ARl6A4-3" value="" style="endArrow=open;endFill=1;endSize=12;html=1;rounded=0;" parent="WIyWlLk6GJQsqaUBKTNV-1" source="HQ5E3-xCeJGkDemCtbQV-18" target="HQ5E3-xCeJGkDemCtbQV-22" edge="1">
          <mxGeometry width="160" relative="1" as="geometry">
            <mxPoint x="529" y="300" as="sourcePoint" />
            <mxPoint x="689" y="300" as="targetPoint" />
          </mxGeometry>
        </mxCell>
        <mxCell id="OqU2lXIKm_mav_ARl6A4-35" value="1..*" style="edgeLabel;html=1;align=center;verticalAlign=middle;resizable=0;points=[];" parent="OqU2lXIKm_mav_ARl6A4-3" vertex="1" connectable="0">
          <mxGeometry x="0.7853" y="-1" relative="1" as="geometry">
            <mxPoint y="13" as="offset" />
          </mxGeometry>
        </mxCell>
        <mxCell id="OqU2lXIKm_mav_ARl6A4-36" value="0..*" style="edgeLabel;html=1;align=center;verticalAlign=middle;resizable=0;points=[];" parent="OqU2lXIKm_mav_ARl6A4-3" vertex="1" connectable="0">
          <mxGeometry x="-0.7344" y="-1" relative="1" as="geometry">
            <mxPoint y="15" as="offset" />
          </mxGeometry>
        </mxCell>
        <mxCell id="OqU2lXIKm_mav_ARl6A4-4" value="" style="endArrow=diamondThin;endFill=1;endSize=24;html=1;rounded=0;" parent="WIyWlLk6GJQsqaUBKTNV-1" source="HQ5E3-xCeJGkDemCtbQV-18" target="HQ5E3-xCeJGkDemCtbQV-26" edge="1">
          <mxGeometry width="160" relative="1" as="geometry">
            <mxPoint x="649" y="340" as="sourcePoint" />
            <mxPoint x="809" y="340" as="targetPoint" />
          </mxGeometry>
        </mxCell>
        <mxCell id="OqU2lXIKm_mav_ARl6A4-37" value="1" style="edgeLabel;html=1;align=center;verticalAlign=middle;resizable=0;points=[];" parent="OqU2lXIKm_mav_ARl6A4-4" vertex="1" connectable="0">
          <mxGeometry x="-0.7425" relative="1" as="geometry">
            <mxPoint x="-8" as="offset" />
          </mxGeometry>
        </mxCell>
        <mxCell id="gkyO0bOVEcpPEuzfR0ZF-22" value="Enthällt" style="edgeLabel;html=1;align=center;verticalAlign=middle;resizable=0;points=[];" parent="OqU2lXIKm_mav_ARl6A4-4" vertex="1" connectable="0">
          <mxGeometry x="-0.2031" y="-3" relative="1" as="geometry">
            <mxPoint x="7" as="offset" />
          </mxGeometry>
        </mxCell>
        <mxCell id="OqU2lXIKm_mav_ARl6A4-5" value="" style="endArrow=diamondThin;endFill=1;endSize=24;html=1;rounded=0;" parent="WIyWlLk6GJQsqaUBKTNV-1" source="HQ5E3-xCeJGkDemCtbQV-26" target="HQ5E3-xCeJGkDemCtbQV-9" edge="1">
          <mxGeometry width="160" relative="1" as="geometry">
            <mxPoint x="563" y="501.76" as="sourcePoint" />
            <mxPoint x="723" y="501.76" as="targetPoint" />
          </mxGeometry>
        </mxCell>
        <mxCell id="OqU2lXIKm_mav_ARl6A4-39" value="1..*" style="edgeLabel;html=1;align=center;verticalAlign=middle;resizable=0;points=[];" parent="OqU2lXIKm_mav_ARl6A4-5" vertex="1" connectable="0">
          <mxGeometry x="-0.5406" y="-1" relative="1" as="geometry">
            <mxPoint x="14" y="-11" as="offset" />
          </mxGeometry>
        </mxCell>
        <mxCell id="OqU2lXIKm_mav_ARl6A4-6" value="" style="endArrow=open;endFill=1;endSize=12;html=1;rounded=0;" parent="WIyWlLk6GJQsqaUBKTNV-1" source="HQ5E3-xCeJGkDemCtbQV-9" target="HQ5E3-xCeJGkDemCtbQV-1" edge="1">
          <mxGeometry width="160" relative="1" as="geometry">
            <mxPoint x="419" y="320" as="sourcePoint" />
            <mxPoint x="579" y="320" as="targetPoint" />
            <Array as="points" />
          </mxGeometry>
        </mxCell>
        <mxCell id="OqU2lXIKm_mav_ARl6A4-40" value="1..*" style="edgeLabel;html=1;align=center;verticalAlign=middle;resizable=0;points=[];" parent="OqU2lXIKm_mav_ARl6A4-6" vertex="1" connectable="0">
          <mxGeometry x="0.7439" y="-1" relative="1" as="geometry">
            <mxPoint y="-11" as="offset" />
          </mxGeometry>
        </mxCell>
        <mxCell id="OqU2lXIKm_mav_ARl6A4-41" value="1" style="edgeLabel;html=1;align=center;verticalAlign=middle;resizable=0;points=[];" parent="OqU2lXIKm_mav_ARl6A4-6" vertex="1" connectable="0">
          <mxGeometry x="-0.8024" y="-2" relative="1" as="geometry">
            <mxPoint x="5" y="12" as="offset" />
          </mxGeometry>
        </mxCell>
        <mxCell id="--qZfodUooBe3ldgVEKA-0" value="Kennt" style="edgeLabel;html=1;align=center;verticalAlign=middle;resizable=0;points=[];" vertex="1" connectable="0" parent="OqU2lXIKm_mav_ARl6A4-6">
          <mxGeometry x="-0.1802" y="-1" relative="1" as="geometry">
            <mxPoint y="-1" as="offset" />
          </mxGeometry>
        </mxCell>
        <mxCell id="OqU2lXIKm_mav_ARl6A4-7" value="" style="endArrow=open;endFill=1;endSize=12;html=1;rounded=0;" parent="WIyWlLk6GJQsqaUBKTNV-1" source="HQ5E3-xCeJGkDemCtbQV-1" target="HQ5E3-xCeJGkDemCtbQV-22" edge="1">
          <mxGeometry width="160" relative="1" as="geometry">
            <mxPoint x="189" y="338" as="sourcePoint" />
            <mxPoint x="429" y="298" as="targetPoint" />
          </mxGeometry>
        </mxCell>
        <mxCell id="OqU2lXIKm_mav_ARl6A4-42" value="1" style="edgeLabel;html=1;align=center;verticalAlign=middle;resizable=0;points=[];" parent="OqU2lXIKm_mav_ARl6A4-7" vertex="1" connectable="0">
          <mxGeometry x="0.6471" y="-1" relative="1" as="geometry">
            <mxPoint x="-11" y="10" as="offset" />
          </mxGeometry>
        </mxCell>
        <mxCell id="OqU2lXIKm_mav_ARl6A4-43" value="0..*" style="edgeLabel;html=1;align=center;verticalAlign=middle;resizable=0;points=[];" parent="OqU2lXIKm_mav_ARl6A4-7" vertex="1" connectable="0">
          <mxGeometry x="-0.7479" y="2" relative="1" as="geometry">
            <mxPoint x="12" as="offset" />
          </mxGeometry>
        </mxCell>
        <mxCell id="gkyO0bOVEcpPEuzfR0ZF-2" value="&amp;lt;&amp;lt;enumeration&amp;gt;&amp;gt;&lt;br&gt;&lt;div&gt;&lt;b&gt;SeatType&lt;/b&gt;&lt;/div&gt;" style="swimlane;fontStyle=0;childLayout=stackLayout;horizontal=1;startSize=30;fillColor=none;horizontalStack=0;resizeParent=1;resizeParentMax=0;resizeLast=0;collapsible=1;marginBottom=0;whiteSpace=wrap;html=1;" parent="WIyWlLk6GJQsqaUBKTNV-1" vertex="1">
          <mxGeometry x="199" y="606" width="140" height="108" as="geometry" />
        </mxCell>
        <mxCell id="gkyO0bOVEcpPEuzfR0ZF-3" value="REGULAR&lt;div&gt;&lt;br/&gt;&lt;/div&gt;" style="text;strokeColor=none;fillColor=none;align=left;verticalAlign=top;spacingLeft=4;spacingRight=4;overflow=hidden;rotatable=0;points=[[0,0.5],[1,0.5]];portConstraint=eastwest;whiteSpace=wrap;html=1;" parent="gkyO0bOVEcpPEuzfR0ZF-2" vertex="1">
          <mxGeometry y="30" width="140" height="26" as="geometry" />
        </mxCell>
        <mxCell id="gkyO0bOVEcpPEuzfR0ZF-4" value="BALCONY&amp;nbsp;" style="text;strokeColor=none;fillColor=none;align=left;verticalAlign=top;spacingLeft=4;spacingRight=4;overflow=hidden;rotatable=0;points=[[0,0.5],[1,0.5]];portConstraint=eastwest;whiteSpace=wrap;html=1;" parent="gkyO0bOVEcpPEuzfR0ZF-2" vertex="1">
          <mxGeometry y="56" width="140" height="26" as="geometry" />
        </mxCell>
        <mxCell id="gkyO0bOVEcpPEuzfR0ZF-5" value="WHEELCHAIR" style="text;strokeColor=none;fillColor=none;align=left;verticalAlign=top;spacingLeft=4;spacingRight=4;overflow=hidden;rotatable=0;points=[[0,0.5],[1,0.5]];portConstraint=eastwest;whiteSpace=wrap;html=1;" parent="gkyO0bOVEcpPEuzfR0ZF-2" vertex="1">
          <mxGeometry y="82" width="140" height="26" as="geometry" />
        </mxCell>
        <mxCell id="gkyO0bOVEcpPEuzfR0ZF-6" value="&lt;b&gt;Seat&lt;/b&gt;" style="swimlane;fontStyle=0;childLayout=stackLayout;horizontal=1;startSize=26;fillColor=none;horizontalStack=0;resizeParent=1;resizeParentMax=0;resizeLast=0;collapsible=1;marginBottom=0;whiteSpace=wrap;html=1;" parent="WIyWlLk6GJQsqaUBKTNV-1" vertex="1">
          <mxGeometry x="469" y="610" width="160" height="104" as="geometry" />
        </mxCell>
        <mxCell id="gkyO0bOVEcpPEuzfR0ZF-7" value="+ SeatNumber: Int" style="text;strokeColor=none;fillColor=none;align=left;verticalAlign=top;spacingLeft=4;spacingRight=4;overflow=hidden;rotatable=0;points=[[0,0.5],[1,0.5]];portConstraint=eastwest;whiteSpace=wrap;html=1;" parent="gkyO0bOVEcpPEuzfR0ZF-6" vertex="1">
          <mxGeometry y="26" width="160" height="26" as="geometry" />
        </mxCell>
        <mxCell id="gkyO0bOVEcpPEuzfR0ZF-8" value="+ Type:&amp;nbsp;&lt;span style=&quot;text-align: center;&quot;&gt;SeatType&lt;/span&gt;" style="text;strokeColor=none;fillColor=none;align=left;verticalAlign=top;spacingLeft=4;spacingRight=4;overflow=hidden;rotatable=0;points=[[0,0.5],[1,0.5]];portConstraint=eastwest;whiteSpace=wrap;html=1;" parent="gkyO0bOVEcpPEuzfR0ZF-6" vertex="1">
          <mxGeometry y="52" width="160" height="26" as="geometry" />
        </mxCell>
        <mxCell id="gkyO0bOVEcpPEuzfR0ZF-9" value="+ IsAvailable: boolean" style="text;strokeColor=none;fillColor=none;align=left;verticalAlign=top;spacingLeft=4;spacingRight=4;overflow=hidden;rotatable=0;points=[[0,0.5],[1,0.5]];portConstraint=eastwest;whiteSpace=wrap;html=1;" parent="gkyO0bOVEcpPEuzfR0ZF-6" vertex="1">
          <mxGeometry y="78" width="160" height="26" as="geometry" />
        </mxCell>
        <mxCell id="gkyO0bOVEcpPEuzfR0ZF-11" value="" style="endArrow=diamondThin;endFill=0;endSize=24;html=1;rounded=0;" parent="WIyWlLk6GJQsqaUBKTNV-1" source="gkyO0bOVEcpPEuzfR0ZF-6" target="HQ5E3-xCeJGkDemCtbQV-9" edge="1">
          <mxGeometry width="160" relative="1" as="geometry">
            <mxPoint x="599" y="550" as="sourcePoint" />
            <mxPoint x="489" y="580" as="targetPoint" />
          </mxGeometry>
        </mxCell>
        <mxCell id="gkyO0bOVEcpPEuzfR0ZF-17" value="0..*" style="edgeLabel;html=1;align=center;verticalAlign=middle;resizable=0;points=[];" parent="gkyO0bOVEcpPEuzfR0ZF-11" vertex="1" connectable="0">
          <mxGeometry x="-0.7925" y="2" relative="1" as="geometry">
            <mxPoint x="17" as="offset" />
          </mxGeometry>
        </mxCell>
        <mxCell id="gkyO0bOVEcpPEuzfR0ZF-18" value="Besteht aus" style="edgeLabel;html=1;align=center;verticalAlign=middle;resizable=0;points=[];" parent="gkyO0bOVEcpPEuzfR0ZF-11" vertex="1" connectable="0">
          <mxGeometry x="-0.1733" relative="1" as="geometry">
            <mxPoint as="offset" />
          </mxGeometry>
        </mxCell>
        <mxCell id="gkyO0bOVEcpPEuzfR0ZF-14" value="" style="endArrow=open;endFill=1;endSize=12;html=1;rounded=0;" parent="WIyWlLk6GJQsqaUBKTNV-1" source="HQ5E3-xCeJGkDemCtbQV-1" target="gkyO0bOVEcpPEuzfR0ZF-6" edge="1">
          <mxGeometry width="160" relative="1" as="geometry">
            <mxPoint x="649" y="460" as="sourcePoint" />
            <mxPoint x="809" y="460" as="targetPoint" />
          </mxGeometry>
        </mxCell>
        <mxCell id="gkyO0bOVEcpPEuzfR0ZF-20" value="Kennt" style="edgeLabel;html=1;align=center;verticalAlign=middle;resizable=0;points=[];" parent="gkyO0bOVEcpPEuzfR0ZF-14" vertex="1" connectable="0">
          <mxGeometry x="-0.1811" relative="1" as="geometry">
            <mxPoint x="5" y="4" as="offset" />
          </mxGeometry>
        </mxCell>
      </root>
    </mxGraphModel>
  </diagram>
</mxfile>
